<mxfile host="app.diagrams.net" agent="Mozilla/5.0 (Windows NT 10.0; Win64; x64) AppleWebKit/537.36 (KHTML, like Gecko) Chrome/132.0.0.0 Safari/537.36" version="26.0.14">
  <diagram name="Page-1" id="mmeDlZbvTyKuQFDFRZjR">
    <mxGraphModel dx="2284" dy="746" grid="1" gridSize="10" guides="1" tooltips="1" connect="1" arrows="1" fold="1" page="1" pageScale="1" pageWidth="850" pageHeight="1100" math="0" shadow="0">
      <root>
        <mxCell id="0" />
        <mxCell id="1" parent="0" />
        <mxCell id="KM5P2HzQ3-zlKZp_KFMT-1" value="" style="whiteSpace=wrap;html=1;aspect=fixed;rounded=1;opacity=0;" vertex="1" parent="1">
          <mxGeometry x="-130" y="90" width="370" height="370" as="geometry" />
        </mxCell>
        <mxCell id="KM5P2HzQ3-zlKZp_KFMT-2" value="Text" style="text;html=1;align=center;verticalAlign=middle;whiteSpace=wrap;rounded=0;" vertex="1" parent="1">
          <mxGeometry x="-90" y="210" width="60" height="30" as="geometry" />
        </mxCell>
        <mxCell id="KM5P2HzQ3-zlKZp_KFMT-4" value="" style="rounded=1;arcSize=9;align=left;spacingLeft=5;strokeColor=#4C9AFF;html=1;strokeWidth=2;fontSize=12" vertex="1" parent="1">
          <mxGeometry x="-80" y="240" width="290" height="40" as="geometry" />
        </mxCell>
      </root>
    </mxGraphModel>
  </diagram>
</mxfile>
